
<svg xmlns="http://www.w3.org/2000/svg" xmlns:xlink="http://www.w3.org/1999/xlink" width="1838" height="1189" viewBox="0 0 1838 1189">
  <defs>
    <pattern id="pattern" width="1" height="1" patternTransform="matrix(-1, 0, 0, 1, 1428, 0)" viewBox="119.137 72.235 475.727 475.727">
      <image preserveAspectRatio="none" width="714" height="714" xlink:href="../../../../William/zz/MASCOT%2018.png"/>
    </pattern>
    <filter id="Icon_metro-bubble" x="839" y="0" width="987.944" height="821.488" filterUnits="userSpaceOnUse">
      <feOffset dy="3" input="SourceAlpha"/>
      <feGaussianBlur stdDeviation="25" result="blur"/>
      <feFlood flood-color="#001696" flood-opacity="0.051"/>
      <feComposite operator="in" in2="blur"/>
      <feComposite in="SourceGraphic"/>
    </filter>
    <filter id="Path_3" x="0" y="706.325" width="1838" height="286.1" filterUnits="userSpaceOnUse">
      <feOffset dy="3" input="SourceAlpha"/>
      <feGaussianBlur stdDeviation="3" result="blur-2"/>
      <feFlood flood-opacity="0.161"/>
      <feComposite operator="in" in2="blur-2"/>
      <feComposite in="SourceGraphic"/>
    </filter>
  </defs>
  <g id="Component_9_1" data-name="Component 9 – 1" transform="translate(9 72)">
    <rect id="MASCOT_18" data-name="MASCOT 18" width="714" height="714" transform="translate(118)" fill="url(#pattern)"/>
    <g id="Group_6" data-name="Group 6" transform="translate(268 -1752)">
      <g transform="matrix(1, 0, 0, 1, -277, 1680)" filter="url(#Icon_metro-bubble)">
        <path id="Icon_metro-bubble-2" data-name="Icon metro-bubble" d="M421.543,3.856c231.392,0,418.972,130.336,418.972,291.114S652.935,586.084,421.543,586.084a603.946,603.946,0,0,1-65.32-3.53c-90,76.962-197.416,90.763-301.28,92.79V656.508c56.083-23.5,104.743-66.3,104.743-115.211a116,116,0,0,0-1.771-20.081C63.158,467.847,2.571,386.328,2.571,294.97c0-160.777,187.58-291.114,418.972-291.114Z" transform="translate(911.43 68.14)" fill="#fff"/>
      </g>
      <text id="I_M_READY_FOR_THE_NEXT_MISSION_" data-name="I&apos;M READY FOR THE NEXT MISSION!" transform="translate(741 1860)" fill="#001696" font-size="75" font-family="WickedMouse, Wicked Mouse"><tspan x="92.448" y="93">I</tspan><tspan y="93" font-family="Roboto-Regular, Roboto">&apos;</tspan><tspan y="93">M READY </tspan><tspan x="14.152" y="216">FOR THE NEXT </tspan><tspan x="117.515" y="339">MISSION</tspan><tspan y="339" font-family="Arial-BoldMT, Arial" font-weight="700">!</tspan></text>
    </g>
    <g id="Group_32" data-name="Group 32" transform="translate(-50 -1579)">
      <g id="Component_4_1" data-name="Component 4 – 1" transform="translate(50 2219.325)">
        <g transform="matrix(1, 0, 0, 1, -9, -712.33)" filter="url(#Path_3)">
          <path id="Path_3-2" data-name="Path 3" d="M96.675,134.05,1784.893,0C1804.282,0,1820,60.016,1820,134.05s-15.718,134.05-35.107,134.05H35.107C15.718,268.1,0,208.084,0,134.05S77.286,134.05,96.675,134.05Z" transform="translate(9 712.33)" fill="#001696"/>
        </g>
      </g>
      <text id="ORDER_NOW_" data-name="ORDER NOW!" transform="translate(578 2323)" fill="#fff" font-size="90" font-family="WickedMouse, Wicked Mouse"><tspan x="71.53" y="112">ORDER NOW</tspan><tspan y="112" font-family="Roboto, Arial">!</tspan></text>
    </g>
  </g>
</svg>
