<svg xmlns="http://www.w3.org/2000/svg" width="116.203" height="116.328" viewBox="0 0 116.203 116.328">
  <defs>
    <style>
      .cls-1 {
        fill: #fdd100;
      }

      .cls-2 {
        fill: #dedede;
      }

      .cls-3 {
        fill: #f3a177;
      }

      .cls-4 {
        fill: #c87c12;
      }

      .cls-5 {
        fill: #fefdfd;
      }

      .cls-6 {
        fill: #f9980b;
      }

      .cls-7 {
        fill: #787878;
      }
    </style>
  </defs>
  <g id="Group_9" data-name="Group 9" transform="translate(-997.104 -640.713)">
    <path id="Path_5" data-name="Path 5" class="cls-1" d="M1090.894,640.862c11.9-.026,23.8-.324,35.684,0,11.049.3,20.813,10.984,20.758,21.981,0,10.637-.057,21.277.064,31.914.027,2.427-.617,3.222-3.145,3.2q-25.031-.163-50.064,0c-2.547.016-3.384-.62-3.367-3.281C1090.941,676.742,1090.89,658.8,1090.894,640.862Zm28.2,31.883c2.809,0,5.623-.092,8.426.034,1.764.079,2.045-.73,2.059-2.234.014-1.541-.347-2.249-2.073-2.222q-8.425.133-16.853,0c-1.742-.028-2.067.715-2.067,2.238s.347,2.292,2.083,2.217C1113.468,672.656,1116.281,672.745,1119.09,672.745Z" transform="translate(-34.848 0)"/>
    <path id="Path_6" data-name="Path 6" class="cls-1" d="M997.748,769.77q-.033-.845-.067-1.69c.048-10.33.184-20.661.084-30.991-.025-2.646.81-3.323,3.373-3.308q25.37.155,50.74.01c2.227-.01,3.114.459,3.1,2.918-.109,17.852-.075,35.705-.086,53.558l-.587.551-35.75.19c-10.54-1.755-17.527-7.554-20.408-17.985a17.938,17.938,0,0,1-.33-2.762A3.442,3.442,0,0,0,997.748,769.77Zm27.763-5.236c.682.564,1.1.863,1.459,1.215,1.05,1.016,2.153,1.991,3.1,3.1,1,1.18,1.76,1.43,2.948.134,1.038-1.133,1.64-1.789.243-3.231-4.114-4.247-4.094-4.377-.146-8.372,1.252-1.267,1.237-1.964,0-3.235-1.27-1.307-1.931-1.185-3.159.049-4.066,4.086-4.192,4.1-8.3-.041-1.313-1.323-1.938-1.124-3.153.054-1.341,1.3-1.1,2.009.1,3.216,4.033,4.033,4.024,4.126.153,7.988-1.212,1.208-1.737,1.918-.233,3.465,1.588,1.634,2.341.889,3.388-.339C1023.061,767.186,1024.281,765.895,1025.511,764.533Z" transform="translate(-0.142 -34.678)"/>
    <path id="Path_7" data-name="Path 7" class="cls-2" d="M1147.743,733.394c.055,11.9.946,23.865-.064,35.67-1.093,12.775-9.226,21.262-22.863,22.157-10.705.7-21.494.142-32.245.142a1.951,1.951,0,0,1-1.7-.583c.016-.521.045-1.043.045-1.564-.009-17.636.016-35.272-.08-52.908-.012-2.161.526-2.9,2.76-2.808,4.062.176,8.138.062,12.208.048Q1126.773,733.478,1147.743,733.394Zm-28.652,25.429c2.808,0,5.62-.093,8.421.033,1.833.083,2.291-.654,2.272-2.362-.018-1.6-.5-2.185-2.15-2.161q-8.265.121-16.534,0c-1.688-.026-2.083.629-2.114,2.188-.035,1.743.509,2.42,2.306,2.336C1113.887,758.732,1116.491,758.823,1119.091,758.823Zm.286,9.4c2.708,0,5.421-.092,8.123.032,1.807.083,2.338-.6,2.3-2.343-.038-1.55-.414-2.235-2.113-2.209q-8.28.127-16.562,0c-1.664-.025-2.127.585-2.144,2.175-.018,1.7.43,2.465,2.276,2.377C1113.955,768.128,1116.668,768.223,1119.376,768.223Z" transform="translate(-34.852 -34.534)"/>
    <path id="Path_8" data-name="Path 8" class="cls-1" d="M997.828,662.634c.022-10.912,9.849-21.407,21.137-21.741,12.523-.371,25.068-.049,37.6-.029,0,17.965-.035,35.931.061,53.9.013,2.419-.609,3.222-3.22,3.205q-26.253-.166-52.507-.008c-2.449.013-3.086-.75-3.067-3.051C997.927,684.151,997.847,673.392,997.828,662.634Zm28.828-2.407c-1.465-.3-2.24.174-2.224,1.941.019,1.951.915,4.428-.419,5.731s-3.886.469-5.883.407c-2.2-.069-2.057,1.179-2.066,2.607-.01,1.506.1,2.482,2.186,2.535,5.969.15,5.966.258,6.228,5.921.019.417.037.834.064,1.251.028.454.346.991.715.763,1.4-.86,4.152.442,3.953-3.056-.31-5.423.01-5.488,5.787-5.551,1.614-.018,2.543-.16,2.6-2.126.058-2.124-.9-2.331-2.7-2.333-5.69-.007-5.69-.07-5.8-5.527a4.122,4.122,0,0,1,0-.626C1029.324,660.407,1028.368,659.956,1026.656,660.228Z" transform="translate(-0.725 -0.001)"/>
    <path id="Path_9" data-name="Path 9" class="cls-3" d="M997.619,662.722c.018,10.758.1,21.516.007,32.274-.019,2.3.6,3.064,2.983,3.051q25.538-.139,51.076.008c2.54.017,3.145-.787,3.132-3.205-.094-17.965-.055-35.931-.059-53.9h1.275c0,17.94.046,35.88-.07,53.819-.017,2.661.821,3.3,3.367,3.281q25.031-.157,50.064,0c2.528.017,3.172-.778,3.145-3.2-.12-10.637-.059-21.277-.064-31.914q.1,15.53.2,31.058c.013,1.653.13,3.305.2,4.957q-20.97.078-41.94.154c-4.07.014-8.145.129-12.208-.048-2.234-.1-2.772.647-2.76,2.808.1,17.635.071,35.272.08,52.908,0,.521-.029,1.043-.045,1.564l-1.305.134.1-.244q-.024-.274-.061-.547c.011-17.852-.023-35.705.086-53.558.015-2.459-.872-2.928-3.1-2.918q-25.369.119-50.739-.01c-2.563-.016-3.4.661-3.373,3.308.1,10.329-.036,20.661-.084,30.99-.072-9.459-.179-18.918-.205-28.376q-.054-19.508,0-39.015C997.327,664.973,997.073,663.807,997.619,662.722Z" transform="translate(0.012 -0.089)"/>
    <path id="Path_10" data-name="Path 10" class="cls-2" d="M1030.951,824.881l35.75-.19.647,0-.1.244c-.591.589-1.348.456-2.064.456q-15.936.008-31.872,0C1032.5,825.385,1031.629,825.559,1030.951,824.881Z" transform="translate(-12.539 -68.551)"/>
    <path id="Path_11" data-name="Path 11" class="cls-4" d="M997.724,791.143a3.429,3.429,0,0,1,.069.492Q997.48,791.408,997.724,791.143Z" transform="translate(-0.118 -56.052)"/>
    <path id="Path_12" data-name="Path 12" class="cls-5" d="M1129.637,689.142c-2.809,0-5.622-.089-8.426.033-1.736.075-2.082-.685-2.083-2.217s.325-2.265,2.067-2.238q8.425.134,16.854,0c1.726-.027,2.087.681,2.073,2.222-.014,1.5-.295,2.313-2.059,2.234C1135.26,689.05,1132.446,689.142,1129.637,689.142Z" transform="translate(-45.394 -16.397)"/>
    <path id="Path_13" data-name="Path 13" class="cls-5" d="M1037.336,776.075c-1.23,1.361-2.45,2.653-3.6,4-1.047,1.228-1.8,1.973-3.388.339-1.5-1.547-.978-2.257.233-3.465,3.87-3.863,3.88-3.955-.153-7.989-1.207-1.207-1.444-1.915-.1-3.216,1.214-1.178,1.839-1.376,3.153-.054,4.11,4.14,4.236,4.126,8.3.041,1.228-1.234,1.888-1.356,3.159-.05,1.235,1.271,1.25,1.968,0,3.235-3.949,4-3.969,4.126.146,8.372,1.4,1.442.8,2.1-.243,3.231-1.188,1.3-1.944,1.047-2.948-.134-.944-1.109-2.048-2.084-3.1-3.1C1038.432,776.938,1038.018,776.639,1037.336,776.075Z" transform="translate(-11.967 -46.22)"/>
    <path id="Path_14" data-name="Path 14" class="cls-6" d="M1088.58,824.362l-.647,0,.587-.551C1088.544,824,1088.565,824.18,1088.58,824.362Z" transform="translate(-33.771 -68.226)"/>
    <path id="Path_15" data-name="Path 15" class="cls-7" d="M1129.87,771.258c-2.6,0-5.2-.091-7.8.031-1.8.085-2.34-.593-2.306-2.336.031-1.558.425-2.214,2.114-2.188q8.266.131,16.534,0c1.649-.024,2.131.557,2.149,2.161.02,1.708-.438,2.445-2.272,2.362C1135.49,771.164,1132.678,771.257,1129.87,771.258Z" transform="translate(-45.632 -46.968)"/>
    <path id="Path_16" data-name="Path 16" class="cls-7" d="M1130.15,786.223c-2.708,0-5.421-.1-8.124.033-1.846.088-2.294-.676-2.276-2.377.016-1.591.48-2.2,2.144-2.175q8.28.123,16.562,0c1.7-.026,2.075.659,2.113,2.209.043,1.744-.489,2.426-2.3,2.343C1135.571,786.132,1132.859,786.223,1130.15,786.223Z" transform="translate(-45.626 -52.534)"/>
    <path id="Path_17" data-name="Path 17" class="cls-5" d="M1036.406,671.766c1.665-.272,2.595.179,2.373,1.937a4.235,4.235,0,0,0,0,.626c.105,5.457.106,5.52,5.641,5.527,1.75,0,2.683.208,2.626,2.333-.053,1.966-.956,2.109-2.527,2.126-5.62.063-5.931.127-5.63,5.55.194,3.5-2.486,2.2-3.845,3.056-.359.228-.667-.309-.7-.763-.026-.417-.043-.834-.062-1.251-.255-5.663-.252-5.771-6.058-5.921-2.031-.053-2.136-1.029-2.126-2.535.009-1.429-.13-2.676,2.01-2.607,1.942.063,4.426.9,5.722-.406s.426-3.781.408-5.731C1034.227,671.94,1034.981,671.464,1036.406,671.766Z" transform="translate(-10.732 -11.539)"/>
  </g>
</svg>
