<svg xmlns="http://www.w3.org/2000/svg" width="179" height="178" viewBox="0 0 179 178">
  <defs>
    <style>
      .cls-1 {
        fill: #001696;
      }

      .cls-2 {
        fill: #fff;
      }
    </style>
  </defs>
  <g id="Group_17" data-name="Group 17" transform="translate(-1488 -3332)">
    <ellipse id="Ellipse_1" data-name="Ellipse 1" class="cls-1" cx="89.5" cy="89" rx="89.5" ry="89" transform="translate(1488 3332)"/>
    <path id="Icon_awesome-people-carry" data-name="Icon awesome-people-carry" class="cls-2" d="M20.854,15.639a7.82,7.82,0,1,0-7.82-7.82A7.822,7.822,0,0,0,20.854,15.639Zm62.558,0a7.82,7.82,0,1,0-7.82-7.82A7.822,7.822,0,0,0,83.411,15.639Zm20.478,60.619-7.168-17.92-6.7,7.559L89.7,68.862l4.513,11.273a5.209,5.209,0,0,0,4.838,3.274,5.065,5.065,0,0,0,1.939-.375A5.211,5.211,0,0,0,103.889,76.258ZM98.318,42.08,95.3,29.014A10.558,10.558,0,0,0,89.195,21.7a10.052,10.052,0,0,0-9.139.538,17.848,17.848,0,0,0-7.836,9.677l-1.841,5.523L67.772,39.1V23.459a2.614,2.614,0,0,0-2.607-2.607H39.1a2.614,2.614,0,0,0-2.607,2.607V39.1L33.87,37.437,32.03,31.914a17.721,17.721,0,0,0-7.836-9.677,10.055,10.055,0,0,0-9.139-.538,10.558,10.558,0,0,0-6.109,7.315l-3,13.065a10.437,10.437,0,0,0,2.346,9.237L19.241,63.682l1.645,15.085a5.217,5.217,0,0,0,5.181,4.643c.2,0,.375-.016.57-.033a5.2,5.2,0,0,0,4.61-5.751L29.6,62.509a10.412,10.412,0,0,0-2.541-5.7l-7.054-7.983,2.867-11.453,1.108,3.323a10.536,10.536,0,0,0,3.991,5.311L36.3,51.3a6.936,6.936,0,0,0,2.8.815H65.166a6.936,6.936,0,0,0,2.8-.815l8.325-5.295a10.47,10.47,0,0,0,3.991-5.311l1.108-3.323,2.867,11.453L77.2,56.807a10.412,10.412,0,0,0-2.541,5.7L73.018,77.627a5.216,5.216,0,0,0,4.61,5.751c.2.016.375.033.57.033a5.216,5.216,0,0,0,5.181-4.643l1.645-15.085L95.972,51.317a10.485,10.485,0,0,0,2.346-9.237ZM7.544,58.338.376,76.258a5.212,5.212,0,0,0,9.677,3.877l4.513-11.273L14.24,65.9l-6.7-7.559Z" transform="translate(1524.79 3373.558)"/>
  </g>
</svg>
