<svg xmlns="http://www.w3.org/2000/svg" width="178.276" height="178.435" viewBox="0 0 178.276 178.435">
  <path id="Icon_awesome-check-circle" data-name="Icon awesome-check-circle" d="M178.839,89.78A89.138,89.138,0,1,1,89.7.562,89.178,89.178,0,0,1,178.839,89.78ZM79.39,137.02l66.135-66.193a5.76,5.76,0,0,0,0-8.14l-8.133-8.14a5.747,5.747,0,0,0-8.133,0L75.324,108.529l-25.181-25.2a5.748,5.748,0,0,0-8.133,0l-8.133,8.14a5.76,5.76,0,0,0,0,8.14l37.381,37.414a5.747,5.747,0,0,0,8.133,0Z" transform="translate(-0.563 -0.563)" fill="#001696"/>
</svg>
