<svg xmlns="http://www.w3.org/2000/svg" width="178.435" height="178.435" viewBox="0 0 178.435 178.435">
  <path id="Icon_awesome-clock" data-name="Icon awesome-clock" d="M89.78.563A89.217,89.217,0,1,0,179,89.78,89.2,89.2,0,0,0,89.78.563ZM110.321,126.51l-31.73-23.06a4.345,4.345,0,0,1-1.763-3.49V39.415A4.33,4.33,0,0,1,81.146,35.1H98.414a4.33,4.33,0,0,1,4.317,4.317V88.952l22.844,16.62a4.314,4.314,0,0,1,.935,6.044l-10.145,13.958A4.347,4.347,0,0,1,110.321,126.51Z" transform="translate(-0.563 -0.563)" fill="#001696"/>
</svg>
