<svg xmlns="http://www.w3.org/2000/svg" width="126.121" height="126.092" viewBox="0 0 126.121 126.092">
  <defs>
    <style>
      .cls-1 {
        fill: #fff;
      }
    </style>
  </defs>
  <path id="Icon_awesome-instagram" data-name="Icon awesome-instagram" class="cls-1" d="M63.069,32.955A32.329,32.329,0,1,0,95.4,65.284,32.277,32.277,0,0,0,63.069,32.955Zm0,53.346A21.018,21.018,0,1,1,84.087,65.284,21.056,21.056,0,0,1,63.069,86.3Zm41.191-54.669a7.541,7.541,0,1,1-7.541-7.541A7.523,7.523,0,0,1,104.261,31.633Zm21.412,7.653c-.478-10.1-2.785-19.048-10.185-26.42-7.372-7.372-16.319-9.679-26.42-10.185-10.41-.591-41.614-.591-52.024,0-10.073.478-19.02,2.785-26.42,10.157S.944,29.157.438,39.258c-.591,10.41-.591,41.613,0,52.024.478,10.1,2.785,19.048,10.185,26.42s16.319,9.679,26.42,10.185c10.41.591,41.614.591,52.024,0,10.1-.478,19.048-2.785,26.42-10.185,7.372-7.372,9.679-16.319,10.185-26.42.591-10.41.591-41.585,0-52Zm-13.449,63.166a21.279,21.279,0,0,1-11.986,11.986c-8.3,3.292-28,2.532-37.168,2.532s-28.9.732-37.168-2.532a21.279,21.279,0,0,1-11.986-11.986c-3.292-8.3-2.532-28-2.532-37.168s-.732-28.9,2.532-37.168A21.279,21.279,0,0,1,25.9,16.13c8.3-3.292,28-2.532,37.168-2.532s28.9-.732,37.168,2.532a21.279,21.279,0,0,1,11.986,11.986c3.292,8.3,2.532,28,2.532,37.168S115.515,94.18,112.223,102.452Z" transform="translate(0.005 -2.238)"/>
</svg>
