<?xml version="1.0" standalone="no"?>
<!DOCTYPE svg PUBLIC "-//W3C//DTD SVG 20010904//EN"
 "http://www.w3.org/TR/2001/REC-SVG-20010904/DTD/svg10.dtd">
<svg version="1.0" xmlns="http://www.w3.org/2000/svg"
 width="940.000000pt" height="1787.000000pt" viewBox="0 0 940.000000 1787.000000"
 preserveAspectRatio="xMidYMid meet">
<metadata>
Created by potrace 1.16, written by Peter Selinger 2001-2019
</metadata>
<g transform="translate(0.000000,1787.000000) scale(0.100000,-0.100000)"
fill="#000000" stroke="none">
<path d="M4445 16914 c-205 -46 -386 -156 -635 -388 l-124 -116 -55 8 c-31 4
-103 6 -161 6 -163 -2 -297 -43 -433 -130 -398 -257 -505 -784 -242 -1180 113
-170 284 -290 490 -345 95 -25 285 -30 380 -10 394 85 668 425 668 826 -1 224
-74 412 -228 583 l-48 53 29 31 c47 49 216 182 274 215 137 78 280 94 385 43
67 -32 172 -138 224 -226 184 -312 232 -715 155 -1324 -17 -138 -109 -698
-115 -704 -2 -2 -98 -9 -214 -15 -241 -13 -367 -29 -550 -73 -544 -129 -1082
-430 -1431 -800 -383 -407 -702 -1011 -853 -1613 -123 -496 -171 -1122 -201
-2655 -21 -1064 -45 -1547 -106 -2090 -75 -681 -179 -1162 -394 -1830 -166
-517 -216 -752 -207 -975 7 -198 56 -326 161 -423 99 -91 199 -126 361 -126
124 0 164 7 391 70 89 24 179 44 201 44 81 0 220 -134 363 -350 162 -244 259
-352 400 -442 180 -116 421 -171 645 -148 255 26 420 103 670 310 184 153 387
280 446 280 46 0 89 -22 254 -130 84 -55 182 -114 217 -130 217 -102 482 -93
714 23 116 58 219 136 374 281 262 246 328 287 477 294 79 4 105 0 200 -26
485 -137 537 -147 758 -146 206 1 284 16 404 79 180 95 265 247 265 470 -1
137 -14 206 -114 586 -333 1273 -455 2054 -535 3429 -32 554 -35 746 -29 1635
7 872 2 1134 -27 1485 -96 1198 -372 1881 -944 2343 -331 267 -817 498 -1223
582 -42 9 -78 18 -80 19 -2 2 11 82 27 177 38 215 86 553 103 719 19 190 16
570 -5 710 -87 560 -345 956 -702 1076 -102 34 -272 42 -380 18z m-758 -913
c72 -34 163 -115 200 -179 86 -146 83 -342 -6 -481 -94 -146 -235 -217 -416
-209 -82 3 -101 8 -168 41 -167 82 -258 225 -260 407 -4 338 345 563 650 421z
m139 -2726 c10 -24 -3 -59 -47 -124 -36 -54 -46 -63 -87 -73 -26 -6 -96 -28
-157 -49 -60 -21 -111 -36 -113 -35 -7 7 218 201 286 247 76 51 108 60 118 34z
m622 -405 c-3 -28 -10 -34 -83 -65 -44 -19 -102 -49 -130 -66 -27 -18 -59 -32
-70 -33 -27 -1 -196 -193 -256 -290 -60 -98 -103 -200 -137 -325 -23 -87 -26
-113 -26 -286 0 -173 3 -199 26 -286 58 -215 143 -366 287 -509 117 -116 210
-187 316 -240 45 -22 84 -40 88 -40 4 0 7 8 7 18 0 18 4 18 68 6 37 -7 106
-13 155 -14 63 0 87 -3 87 -12 0 -7 3 -23 6 -34 5 -20 1 -21 -98 -26 -209 -11
-598 20 -793 62 -241 53 -293 88 -359 245 -170 404 -254 1183 -166 1531 34
135 90 191 243 244 181 63 474 122 697 138 63 5 121 10 128 11 9 1 12 -9 10
-29z m1027 -80 c190 -39 446 -105 502 -130 27 -12 47 -28 53 -45 32 -83 37
-561 10 -890 -25 -293 -80 -576 -134 -683 -66 -131 -179 -197 -461 -272 -119
-32 -380 -80 -432 -80 -34 0 -34 0 -47 71 -3 12 16 25 64 46 68 30 68 30 74 9
3 -11 6 -34 6 -49 0 -15 6 -30 14 -33 21 -8 164 68 254 136 127 95 234 226
313 383 196 387 169 884 -68 1240 -62 94 -190 227 -278 289 -44 31 -61 47 -45
44 14 -3 93 -20 175 -36z m-610 -55 c112 -24 242 -95 336 -183 92 -87 145
-160 199 -276 158 -338 94 -753 -158 -1018 l-55 -58 -206 0 c-193 0 -336 -10
-578 -41 l-102 -13 -58 50 c-126 110 -227 270 -274 434 -30 107 -38 326 -14
441 38 187 115 331 249 464 105 105 193 156 326 191 102 27 232 31 335 9z
m-1792 -222 c-7 -38 -16 -144 -20 -236 -6 -166 -6 -168 -35 -205 -37 -47 -115
-109 -146 -117 -89 -22 -62 135 66 378 52 100 140 247 146 247 2 0 -3 -30 -11
-67z"/>
<path d="M4577 12280 c-124 -44 -206 -119 -267 -243 -148 -304 12 -661 324
-718 154 -29 318 47 415 192 177 265 71 652 -209 759 -82 32 -191 36 -263 10z"/>
</g>
</svg>
