<svg xmlns="http://www.w3.org/2000/svg" width="23.755" height="25.058" viewBox="0 0 23.755 25.058">
  <path id="Path_24" data-name="Path 24" d="M394.592,2209.542q0-5.222,0-10.444c0-1.207.365-1.571,1.575-1.569,3.11,0,6.225-.1,9.33.044a11.992,11.992,0,0,1,9.79,5.057,11.765,11.765,0,0,1,2.013,7.945,11.067,11.067,0,0,1-5.514,9.122,13.364,13.364,0,0,1-6.911,1.854c-2.955.021-5.91.006-8.865,0-.989,0-1.416-.421-1.417-1.415Q394.588,2214.841,394.592,2209.542Zm7.478-9.84h-3.442c-1.074,0-1.475.4-1.475,1.452q0,7.829,0,15.657c0,.482-.015.965,0,1.447a1.1,1.1,0,0,0,1.073,1.112c2.623-.028,5.252.164,7.868-.1A9.777,9.777,0,0,0,407.2,2200,24.721,24.721,0,0,0,402.071,2199.7Z" transform="translate(-394.092 -2197.003)" fill="#fff" stroke="#fff" stroke-width="1"/>
</svg>
