<svg xmlns="http://www.w3.org/2000/svg" width="24.248" height="25.098" viewBox="0 0 24.248 25.098">
  <path id="Path_25" data-name="Path 25" d="M646.538,2197.613c.953-.2,1.445.3,1.829,1.146q4.714,10.369,9.475,20.716a3.567,3.567,0,0,1,.272.665,1.217,1.217,0,0,1-.8,1.441,1.246,1.246,0,0,1-1.543-.713c-.607-1.329-1.214-2.657-1.8-4-.784-1.8-.779-1.686-2.6-1.682-3.49.007-6.98.017-10.47-.01a1.479,1.479,0,0,0-1.561.987c-.656,1.532-1.362,3.043-2.048,4.562a1.223,1.223,0,1,1-2.215-.991q4.881-10.665,9.763-21.33A1.4,1.4,0,0,1,646.538,2197.613Zm-.03,15.557c1.279,0,2.558.008,3.836,0a1.168,1.168,0,0,0,1.144-1.728c-1.276-2.876-2.567-5.745-3.85-8.617a1.205,1.205,0,0,0-2.261,0q-1.917,4.283-3.833,8.566a1.183,1.183,0,0,0,1.179,1.777C643.985,2213.174,645.247,2213.17,646.508,2213.17Z" transform="translate(-634.422 -2197.07)" fill="#fff" stroke="#fff" stroke-width="1"/>
</svg>
