<svg xmlns="http://www.w3.org/2000/svg" width="73.031" height="78.766" viewBox="0 0 73.031 78.766">
  <path id="Path_22" data-name="Path 22" d="M-350.555,1241.18c-1.836.434-2.852,2-4.3,2.91-2.056,1.3-4.076,1.681-5.727-.35-1.59-1.957-1.116-4,.559-5.781a6.375,6.375,0,0,1,1.5-1.367,17.356,17.356,0,0,0,8.707-9.309c.824-2.13,3.135-2.46,5.284-1.465,1.942.9,2.487,2.293,1.987,4.516a67.058,67.058,0,0,0-2.027,12.911,5.011,5.011,0,0,0,.8,3.531c2.033-1.745,3.02-4.185,4.193-6.416,5.168-9.822,8.682-20.128,8.358-31.414-.107-3.705,2.318-4.981,5.208-6.035A140.481,140.481,0,0,0-305.7,1194.2a59.134,59.134,0,0,0,13.512-10.059c.56-.568,1.034-1.668,2.082-1.2.854.38.94,1.37,1.14,2.241.943,4.092.143,8.176-.325,12.183a214.2,214.2,0,0,1-9.262,43.46c-1.106,3.3-2.605,6.468-4.029,9.65-.7,1.566-2.137,2.035-3.8,2.255-5.429.719-10.885.4-16.326.593a95.59,95.59,0,0,0-12.75,1.206c-3.277.561-6.427,1.411-8.233,4.754-.775,1.434-2.007,2.679-4.023,2.213a4.811,4.811,0,0,1-3.928-4.147,31.336,31.336,0,0,1,.366-12.153C-351,1243.894-350.238,1242.66-350.555,1241.18Zm54.866-44.325-.758-.125a9.452,9.452,0,0,0-.472,1.31,129.379,129.379,0,0,1-8.565,26.244,24.074,24.074,0,0,0-2.3,7.8c-.06.764-.186,1.66.768,1.986.717.245,1.3-.21,1.8-.705a16.306,16.306,0,0,0,3.348-5.412c2.826-6.687,3.9-13.813,5.131-20.884C-296.15,1203.7-295.441,1200.3-295.689,1196.855Z" transform="translate(361.558 -1182.824)" fill="#fff"/>
</svg>
