<svg xmlns="http://www.w3.org/2000/svg" width="24.262" height="25.054" viewBox="0 0 24.262 25.054">
  <defs>
    <style>
      .cls-1 {
        fill: #fff;
        stroke: #fff;
      }
    </style>
  </defs>
  <path id="Path_26" data-name="Path 26" class="cls-1" d="M887.851,2197.619c.938-.184,1.426.269,1.8,1.085q4.784,10.51,9.619,21a1.312,1.312,0,0,1-.056,1.457,1.192,1.192,0,0,1-1.194.453,1.27,1.27,0,0,1-1-.873c-.687-1.537-1.4-3.065-2.064-4.611a1.417,1.417,0,0,0-1.482-.946q-5.7.032-11.4,0a1.332,1.332,0,0,0-1.363.884c-.676,1.542-1.378,3.073-2.073,4.607a1.235,1.235,0,1,1-2.2-1.024q4.769-10.4,9.523-20.813C886.353,2197.961,886.821,2197.393,887.851,2197.619Zm-.057,15.552c1.262,0,2.523,0,3.785,0a1.188,1.188,0,0,0,1.194-1.8q-1.889-4.239-3.786-8.475a1.222,1.222,0,0,0-2.332,0q-1.891,4.238-3.787,8.474a1.189,1.189,0,0,0,1.193,1.8C885.305,2213.176,886.549,2213.171,887.794,2213.171Z" transform="translate(-875.695 -2197.074)"/>
</svg>
