<svg xmlns="http://www.w3.org/2000/svg" width="24.228" height="25.053" viewBox="0 0 24.228 25.053">
  <defs>
    <style>
      .cls-1 {
        fill: #fff;
        stroke: #fff;
      }
    </style>
  </defs>
  <path id="Path_27" data-name="Path 27" class="cls-1" d="M-215.882,2221.727a1.306,1.306,0,0,1-1.366-.852c-.7-1.552-1.41-3.1-2.088-4.656a1.389,1.389,0,0,0-1.437-.932q-5.7.029-11.4,0a1.362,1.362,0,0,0-1.407.9c-.674,1.543-1.375,3.074-2.071,4.607a1.252,1.252,0,0,1-1.7.8,1.248,1.248,0,0,1-.52-1.8q4.845-10.572,9.685-21.145a1.36,1.36,0,0,1,1.476-.948,3.217,3.217,0,0,0,.57,0,1.307,1.307,0,0,1,1.4.9c1.133,2.5,2.283,5,3.429,7.5q3.147,6.863,6.295,13.726a1.355,1.355,0,0,1,.161.992A1.134,1.134,0,0,1-215.882,2221.727Zm-10.612-8.452c1.294,0,2.589.01,3.883,0a1.157,1.157,0,0,0,1.163-1.644c-1.3-2.936-2.616-5.862-3.934-8.788a1.115,1.115,0,0,0-1.158-.7,1.231,1.231,0,0,0-1.1.875q-1.89,4.232-3.785,8.461a1.184,1.184,0,0,0,1.151,1.792C-229.013,2213.283-227.753,2213.275-226.494,2213.275Z" transform="translate(238.55 -2197.186)"/>
</svg>
