<svg xmlns="http://www.w3.org/2000/svg" width="20.817" height="25.321" viewBox="0 0 20.817 25.321">
  <defs>
    <style>
      .cls-1 {
        fill: #fff;
        stroke: #fff;
      }
    </style>
  </defs>
  <path id="Path_28" data-name="Path 28" class="cls-1" d="M149.214,2206.536c-.041,1.858.077,4.15-.058,6.438a11.385,11.385,0,0,1-.981,4.09,8.122,8.122,0,0,1-5.965,4.717,12.907,12.907,0,0,1-6.2-.109,8.342,8.342,0,0,1-6.234-6.627,13.91,13.91,0,0,1-.365-3.225q-.018-6.305,0-12.611c0-.93.441-1.419,1.26-1.421a1.175,1.175,0,0,1,1.282,1.284q.005,4.574,0,9.148c0,1.327-.017,2.654.024,3.979a10.017,10.017,0,0,0,.853,3.958,5.778,5.778,0,0,0,3.838,3.274,9.68,9.68,0,0,0,5.066.063c2.835-.718,4.219-2.732,4.727-5.469a14.22,14.22,0,0,0,.217-2.621q-.009-6.125,0-12.25c0-.858.437-1.348,1.205-1.366a1.19,1.19,0,0,1,1.336,1.338C149.217,2201.452,149.214,2203.778,149.214,2206.536Z" transform="translate(-128.903 -2197.288)"/>
</svg>
